<svg xmlns="http://www.w3.org/2000/svg" width="600" height="400" viewBox="0 0 600 400" fill="none">
  <defs>
    <linearGradient id="blockGradient" x1="0%" y1="0%" x2="100%" y2="100%">
      <stop offset="0%" stop-color="#4F46E5" stop-opacity="0.1" />
      <stop offset="100%" stop-color="#2563EB" stop-opacity="0.3" />
    </linearGradient>
    <linearGradient id="activeBlockGradient" x1="0%" y1="0%" x2="100%" y2="100%">
      <stop offset="0%" stop-color="#4F46E5" stop-opacity="0.7" />
      <stop offset="100%" stop-color="#2563EB" stop-opacity="0.9" />
    </linearGradient>
  </defs>
  
  <!-- Chain Background -->
  <rect x="50" y="160" width="500" height="80" rx="5" fill="#F9FAFB" />
  
  <!-- Blockchain blocks -->
  <g class="blockchain">
    <!-- Block 1 -->
    <g transform="translate(80, 170)">
      <rect width="60" height="60" rx="5" fill="url(#blockGradient)" stroke="#4F46E5" stroke-width="2" />
      <text x="30" y="37" text-anchor="middle" font-family="monospace" font-size="12" fill="#4F46E5" font-weight="bold">01</text>
    </g>
    <line x1="140" y1="200" x2="160" y2="200" stroke="#4F46E5" stroke-width="2" stroke-dasharray="4 2" />
    
    <!-- Block 2 -->
    <g transform="translate(160, 170)">
      <rect width="60" height="60" rx="5" fill="url(#blockGradient)" stroke="#4F46E5" stroke-width="2" />
      <text x="30" y="37" text-anchor="middle" font-family="monospace" font-size="12" fill="#4F46E5" font-weight="bold">02</text>
    </g>
    <line x1="220" y1="200" x2="240" y2="200" stroke="#4F46E5" stroke-width="2" stroke-dasharray="4 2" />
    
    <!-- Block 3 -->
    <g transform="translate(240, 170)">
      <rect width="60" height="60" rx="5" fill="url(#blockGradient)" stroke="#4F46E5" stroke-width="2" />
      <text x="30" y="37" text-anchor="middle" font-family="monospace" font-size="12" fill="#4F46E5" font-weight="bold">03</text>
    </g>
    <line x1="300" y1="200" x2="320" y2="200" stroke="#4F46E5" stroke-width="2" stroke-dasharray="4 2" />
    
    <!-- Block 4 (Current/Active) -->
    <g transform="translate(320, 170)">
      <rect width="60" height="60" rx="5" fill="url(#activeBlockGradient)" stroke="#4F46E5" stroke-width="3" />
      <text x="30" y="37" text-anchor="middle" font-family="monospace" font-size="12" fill="white" font-weight="bold">04</text>
      
      <!-- Small consent icons inside -->
      <circle cx="20" cy="50" r="5" fill="white" />
      <path d="M17 50 L19 52 L23 48" stroke="#4F46E5" stroke-width="1.5" fill="none" />
      
      <circle cx="40" cy="50" r="5" fill="white" />
      <path d="M37 47 L43 53 M43 47 L37 53" stroke="#4F46E5" stroke-width="1.5" />
    </g>
    <line x1="380" y1="200" x2="400" y2="200" stroke="#4F46E5" stroke-width="2" stroke-dasharray="4 2" />
    
    <!-- Block 5 (Future block - more transparent) -->
    <g transform="translate(400, 170)">
      <rect width="60" height="60" rx="5" fill="#F9FAFB" stroke="#4F46E5" stroke-width="2" stroke-dasharray="4 2" />
      <text x="30" y="37" text-anchor="middle" font-family="monospace" font-size="12" fill="#4F46E5" font-weight="bold">05</text>
    </g>
    
    <!-- Animated pulse on current block -->
    <circle cx="350" cy="200" r="70" fill="#4F46E5" opacity="0.1">
      <animate attributeName="r" values="70;85;70" dur="2s" repeatCount="indefinite" />
      <animate attributeName="opacity" values="0.1;0.2;0.1" dur="2s" repeatCount="indefinite" />
    </circle>
  </g>
  
  <!-- Data flowing from user to blockchain -->
  <g>
    <!-- User -->
    <circle cx="100" cy="75" r="25" fill="#F3F4F6" stroke="#4F46E5" stroke-width="2" />
    <circle cx="100" cy="60" r="8" fill="#4F46E5" />
    <path d="M85 80 C85 70 115 70 115 80 L115 95 C115 100 85 100 85 95 Z" fill="#4F46E5" />
    
    <!-- Data flows from user to block -->
    <path d="M120 85 Q220 85 270 170" stroke="#4F46E5" stroke-width="2" stroke-dasharray="5 3" fill="none" />
    <circle cx="180" cy="85" r="4" fill="#4F46E5" opacity="0.8">
      <animate attributeName="cx" values="120;220;270" dur="3s" repeatCount="indefinite" />
      <animate attributeName="cy" values="85;85;160" dur="3s" repeatCount="indefinite" />
    </circle>
    
    <!-- Website/App -->
    <circle cx="500" cy="75" r="25" fill="#F3F4F6" stroke="#4F46E5" stroke-width="2" />
    <rect x="485" y="60" width="30" height="30" rx="3" fill="#4F46E5" />
    <path d="M490 65 L510 65 M490 70 L510 70 M490 75 L500 75" stroke="white" stroke-width="1.5" />
    
    <!-- Data flows from block to website -->
    <path d="M380 170 Q450 85 480 85" stroke="#4F46E5" stroke-width="2" stroke-dasharray="5 3" fill="none" />
    <circle cx="420" cy="120" r="4" fill="#4F46E5" opacity="0.8">
      <animate attributeName="cx" values="380;450;480" dur="3s" repeatCount="indefinite" />
      <animate attributeName="cy" values="170;85;85" dur="3s" repeatCount="indefinite" />
      <animate attributeName="opacity" values="0.8;0.5;0.8" dur="3s" repeatCount="indefinite" />
    </circle>
  </g>
  
  <!-- Immutable Records Label -->
  <g transform="translate(150, 300)">
    <rect width="300" height="40" rx="20" fill="#4F46E5" opacity="0.1" />
    <text x="150" y="25" text-anchor="middle" font-family="Arial, sans-serif" font-size="14" fill="#4F46E5" font-weight="bold">IMMUTABLE BLOCKCHAIN RECORDS</text>
  </g>
  
  <!-- Lock Icon for Security -->
  <g transform="translate(310, 80)">
    <circle cx="0" cy="0" r="25" fill="#4F46E5" opacity="0.1" />
    <path d="M-10 0 L-10 -10 C-10 -18 10 -18 10 -10 L10 0 Z" stroke="#4F46E5" stroke-width="2" fill="none" />
    <rect x="-15" y="0" width="30" height="20" rx="3" fill="#4F46E5" />
    <circle cx="0" cy="10" r="3" fill="white" />
    <line x1="0" y1="10" x2="0" y2="15" stroke="white" stroke-width="2" />
  </g>
</svg> 