<svg xmlns="http://www.w3.org/2000/svg" viewBox="0 0 48 48" width="48px" height="48px">
  <path fill="#FFB300" d="M39.61,33c-11.349,7.6-26.334,5.399-30.261,4.399c-0.8-0.2-1.5,0.4-1.199,1.2C8.85,40.2,12.549,48,29.21,48c15.861,0,17.961-12.399,18.461-14.199C47.871,33,40.41,32.6,39.61,33z"/>
  <path fill="#FFB300" d="M38.38,33.4c0,0-0.2-0.2-0.6-0.4c-1.399-0.8-2.199-1-2.199-1s-0.2,0-0.4,0.2c-3.799,3.2-6.999,3.4-9.8,2.8c-3.799-0.8-6.199-2.8-6.199-2.8s-0.2,0-0.2,0.2V33c0,0,0,0.2,0.2,0.2c0.8,0.8,1.8,1.8,2.8,2.4c1.2,0.8,2.999,1.6,5.399,1.6c2.199,0,4.399-0.8,6.999-2.4c0.6-0.4,1.2-0.8,1.8-1.2C36.971,32.8,38.18,33.2,38.38,33.4z"/>
  <path fill="#37474F" d="M29.01,31c0,0,0.8,1.6,3,2.2c1.8,0.6,4.2,0.2,7-2c0,0,0.2-0.2,0-0.4c-0.2-0.2-0.399-0.2-0.399-0.2c-2.2,1.2-4.2,1.8-5.8,1.4C30.81,31.6,29.61,31,29.01,31z"/>
  <path fill="#FFB300" d="M27.61,27c0,0,0.8,1.6,3,2.2c1.8,0.6,4.2,0.2,7-2c0,0,0.2-0.2,0-0.4c-0.2-0.2-0.399-0.2-0.399-0.2c-2.2,1.2-4.2,1.8-5.8,1.4C29.41,27.6,28.21,27,27.61,27z"/>
  <path fill="#37474F" d="M33.01,22.8c-0.2-2.8-1.4-5.4-1.4-5.4c0-0.2-0.2-0.2-0.2-0.2c-0.2,0-0.2,0.2-0.2,0.2c-0.399,1.8-1.6,3.8-2.8,5c-0.399,0.4-0.8,0.8-1.199,1c-0.4,0.2-1,0.4-1.4,0.4c-0.4,0-0.8-0.2-1.2-0.4c-1.2-0.6-1.8-1.8-1.8-3.2c0-2,1.4-3.8,1.4-3.8c0.2-0.2,0-0.4-0.2-0.4c-0.2,0-0.2,0-0.4,0c-1.8,1.4-3,3.4-3,5.6c0,1.4,0.4,2.8,1.2,3.8c0.8,1,2,1.8,3.399,1.8c0.8,0,1.8-0.2,2.4-0.8c1-0.6,1.8-1.6,2.199-2.6c0.2-0.6,0.4-1.2,0.4-1.8c0-0.2,0-0.4,0-0.6c0.6,0.4,1.2,1,1.6,1.6c1,1.2,1.6,2.8,1.6,4.4c0,1.2-0.2,2.6-0.8,3.6c-1.399,2.4-4.199,3-4.199,3c-0.2,0-0.2,0.2-0.2,0.4c0,0.2,0.2,0.2,0.4,0.2c0.599,0,1.199-0.2,1.799-0.4c1.8-0.6,3.2-2,4-3.8c0.4-1.2,0.6-2.6,0.6-4C33.21,24.8,33.21,23.8,33.01,22.8z"/>
  <path fill="#37474F" d="M35.81,33.2c-0.2-0.2-0.399-0.2-0.399-0.2c-0.8,0.4-1.8,0.8-3,1.2c-2.601,0.8-5.4,1.4-8.2,1.4c-2.2,0-4.4-0.2-6.6-0.8c-2-0.6-3.8-1.4-5.4-2.4c-0.6-0.4-1.2-0.8-1.6-1.2c-0.2-0.2-0.4-0.2-0.6,0c-0.2,0.2-0.2,0.4,0,0.6c0.6,0.6,1.4,1.2,2.2,1.6c1.6,1,3.4,1.8,5.2,2.2c2.2,0.6,4.6,0.8,6.8,0.8c2.8,0,5.6-0.4,8.2-1.2c1.8-0.6,3.6-1.2,5.2-2.2C36.01,33.6,36.01,33.4,35.81,33.2z"/>
  <path fill="#37474F" d="M16.01,17.8c0.8-0.2,1.8-0.2,2.8-0.2c2.599,0,5.199,0.6,7.199,1.8c2.2,1.2,3.8,3,4.8,5.2c0.2,0.4,0.4,1,0.4,1.4c0,0.2,0.2,0.2,0.399,0.2c0.2,0,0.2-0.2,0.2-0.4c-0.199-2.2-1.399-4.6-3.199-6.2c-1.6-1.6-3.8-2.6-6-3c-1.8-0.4-3.6-0.4-5.399,0c-1.2,0.2-2.4,0.8-3.4,1.6c-0.2,0.2-0.2,0.4,0,0.6C14.01,19,15.01,18.2,16.01,17.8z"/>
  <path fill="#37474F" d="M13.21,20.2c-0.2-0.2-0.4-0.2-0.6,0c-0.2,0.2-0.2,0.4,0,0.6c0.4,0.4,1,0.8,1.6,1c0.6,0.2,1.4,0.4,2,0.4c0.6,0,1.199-0.2,1.6-0.4c0.6-0.4,1-0.8,1.2-1.4c0.2-0.4,0.2-1,0-1.4c-0.2-0.6-0.6-1-1.2-1.2c-0.6-0.4-1.399-0.6-2.2-0.6c-0.2,0-0.4,0-0.6,0c-0.4,0-0.801,0-1.2,0c-0.4,0-1,0-1.4,0c-0.2,0-0.2,0.2-0.2,0.4c0,0.2,0.2,0.2,0.4,0.2c0.4,0,0.8,0,1.2,0c0.399,0,0.8,0,1.2,0c0.199,0,0.399,0,0.6,0c0.6,0,1.199,0.2,1.6,0.4c0.399,0.2,0.6,0.6,0.6,1c0.2,0.4,0,0.8-0.2,1.2c-0.2,0.4-0.6,0.6-1,0.8c-0.4,0.2-0.8,0.2-1.4,0.2c-0.6-0.2-1.2-0.2-1.6-0.4C14.01,20.8,13.61,20.6,13.21,20.2z"/>
</svg> 